<svg width="24" height="28" viewBox="0 0 24 28" fill="none" xmlns="http://www.w3.org/2000/svg">
<path d="M14.4691 18.3097C14.4691 18.0535 14.2662 17.8966 14.0183 17.9611C14.0183 17.9611 12.857 18.2629 11.9999 18.2629C11.1429 18.2629 9.98159 17.9611 9.98159 17.9611C9.73364 17.8966 9.53076 18.0535 9.53076 18.3097V19.6606C9.53076 19.9168 9.74043 20.1264 9.99658 20.1264H14.0033C14.2596 20.1264 14.4691 19.9167 14.4691 19.6606V18.3097Z" fill="#EC2510"/>
<path d="M19.0816 0.931825C19.0816 0.417266 18.6643 0 18.1497 0H5.85028C5.33572 0 4.91846 0.417266 4.91846 0.931825V8.619C4.91846 11.0251 5.63411 13.2153 6.93351 14.7861C8.2415 16.3672 10.0409 17.238 12 17.238C13.9592 17.238 15.7585 16.3673 17.0665 14.7861C18.3659 13.2153 19.0816 11.0251 19.0816 8.619V0.931825Z" fill="#EC2510"/>
<path d="M4.03185 10.4861C2.75676 10.0116 2.16961 8.91108 2.16961 7.08165V2.91965H3.89345V1.05609H1.23798C0.723324 1.05609 0.306152 1.47326 0.306152 1.98792V7.08156C0.306152 10.189 1.79458 12.0819 4.53142 12.524C4.30657 11.8774 4.13819 11.1952 4.03185 10.4861Z" fill="#EC2510"/>
<path d="M5.85028 21.5242C5.33572 21.5242 4.91846 21.9413 4.91846 22.456V27.0683C4.91846 27.5828 5.33572 28.0001 5.85028 28.0001H18.1498C18.6644 28.0001 19.0816 27.5828 19.0816 27.0683V22.456C19.0816 21.9413 18.6644 21.5242 18.1498 21.5242H5.85028Z" fill="#EC2510"/>
<path d="M22.7618 1.05609H20.1062V2.91965H21.8301V7.08156C21.8301 8.91099 21.2429 10.0115 19.9678 10.486C19.8615 11.1951 19.6932 11.8774 19.4683 12.524C22.2051 12.0819 23.6935 10.189 23.6935 7.08156V1.98792C23.6936 1.47326 23.2765 1.05609 22.7618 1.05609Z" fill="#EC2510"/>
</svg>
