<svg width="51" height="13" viewBox="0 0 51 13" fill="none" xmlns="http://www.w3.org/2000/svg">
<path d="M25.7841 9.40398V11H19.1201V1.47998H20.8281V9.40398H25.7841Z" fill="#EC2510"/>
<path d="M28.1086 11V1.47998H29.8166V11H28.1086Z" fill="#EC2510"/>
<path d="M35.6017 11L31.9337 1.47998H33.7957L36.6097 9.05398L39.3817 1.47998H41.1737L37.5477 11H35.6017Z" fill="#EC2510"/>
<path d="M43.2827 11V1.47998H50.0727V2.99198H44.9907V5.46998H49.8767V6.93998H44.9907V9.48798H50.0307V11H43.2827Z" fill="#EC2510"/>
<path d="M10.6445 5.65218C11.2708 6.0439 11.2708 6.9561 10.6445 7.34782L4.53028 11.172C3.86424 11.5886 3 11.1098 3 10.3242L3 2.67579C3 1.89021 3.86425 1.41139 4.53028 1.82797L10.6445 5.65218Z" fill="#EC2510"/>
</svg>
