<svg width="141" height="38" viewBox="0 0 141 38" fill="none" xmlns="http://www.w3.org/2000/svg">
<path d="M58.0744 27.0114L54.1466 17.5486V28.7714H51V13.2286H55.6419L59.5696 23.1029L63.5866 13.2286H68.2061V28.7714H64.9256V17.5257L60.9978 27.0114H58.0744Z" fill="#8C8F96"/>
<path d="M81.5497 13.2286L87.1065 28.7714H83.5358L82.3084 25.1829H76.2383L75.0332 28.7714H71.5518L77.1087 13.2286H81.5497ZM77.2872 22.12H81.2819L79.2734 16.2457L77.2872 22.12Z" fill="#8C8F96"/>
<path d="M90.4655 28.7714V13.2286H93.8353V19.3314H100.374V13.2286H103.744V28.7714H100.374V22.5543H93.8353V28.7714H90.4655Z" fill="#8C8F96"/>
<path d="M115.44 29C114.325 29 113.298 28.84 112.361 28.52C111.423 28.1848 110.62 27.6895 109.95 27.0343C109.281 26.3638 108.753 25.5257 108.366 24.52C107.994 23.5143 107.808 22.3333 107.808 20.9771C107.808 19.6514 107.994 18.4933 108.366 17.5029C108.753 16.4971 109.281 15.6667 109.95 15.0114C110.62 14.341 111.423 13.8381 112.361 13.5029C113.298 13.1676 114.325 13 115.44 13C116.556 13 117.583 13.1676 118.52 13.5029C119.457 13.8381 120.261 14.341 120.93 15.0114C121.6 15.6667 122.12 16.4971 122.492 17.5029C122.879 18.4933 123.073 19.6514 123.073 20.9771C123.073 22.3333 122.879 23.5143 122.492 24.52C122.12 25.5257 121.6 26.3638 120.93 27.0343C120.261 27.6895 119.457 28.1848 118.52 28.52C117.583 28.84 116.556 29 115.44 29ZM115.44 25.9371C116.779 25.9371 117.813 25.4952 118.542 24.6114C119.271 23.7276 119.636 22.5162 119.636 20.9771C119.636 19.4381 119.271 18.2343 118.542 17.3657C117.813 16.4971 116.779 16.0629 115.44 16.0629C114.101 16.0629 113.067 16.4971 112.338 17.3657C111.609 18.2343 111.245 19.4381 111.245 20.9771C111.245 22.5162 111.609 23.7276 112.338 24.6114C113.067 25.4952 114.101 25.9371 115.44 25.9371Z" fill="#8C8F96"/>
<path d="M141 20.7486V28.7714H138.255V27.2629C137.749 27.8267 137.102 28.261 136.314 28.5657C135.525 28.8552 134.64 29 133.658 29C132.616 29 131.657 28.8324 130.779 28.4971C129.901 28.1467 129.15 27.6362 128.525 26.9657C127.9 26.2952 127.409 25.4571 127.052 24.4514C126.71 23.4457 126.539 22.2876 126.539 20.9771C126.539 19.621 126.725 18.44 127.097 17.4343C127.484 16.4286 128.012 15.5981 128.681 14.9429C129.366 14.2876 130.176 13.8 131.114 13.48C132.051 13.16 133.078 13 134.193 13C136.053 13 137.563 13.4114 138.724 14.2343C139.899 15.0419 140.658 16.2686 141 17.9143L137.563 18.4629C137.37 17.7924 136.998 17.2286 136.447 16.7714C135.912 16.299 135.16 16.0629 134.193 16.0629C132.869 16.0629 131.835 16.4895 131.091 17.3429C130.348 18.1962 129.976 19.4076 129.976 20.9771C129.976 22.5619 130.348 23.781 131.091 24.6343C131.835 25.4876 132.862 25.9143 134.171 25.9143C135.242 25.9143 136.12 25.6705 136.804 25.1829C137.489 24.68 137.861 24.1086 137.92 23.4686H134.461V20.7486H141Z" fill="#8C8F96"/>
<path d="M20 0L24.7214 14.5147H40L27.6393 23.4853L32.3607 38L20 29.0294L7.63932 38L12.3607 23.4853L0 14.5147H15.2786L20 0Z" fill="#EC2510"/>
</svg>
